<svg height="500" viewBox="0 0 500.00001 500.00001" width="500" xmlns="http://www.w3.org/2000/svg"><g transform="translate(0 -552.36216)"><g fill="#800000" transform="translate(-387.13708 -42.343146)"><path d="m100 723.91547a100 100 0 0 0-100 100h50a50 50 0 0 1 50-50 50 50 0 0 1  50 50 50 50 0 0 1-49.83398 49.99414h-25.16602v100h50v-53.29687a100 100 0 0 0 75-96.69727 100 100 0 0 0-100-100z"/><ellipse cx="100" cy="1008.9125" rx="25" ry="24"/></g><path d="m249.99992 791.47531l-249.99990586-119.75538.1411646 260.88695 249.99991126 119.75542z" fill="#e6e6e6" fill-rule="evenodd"/><path d="m250.00013 791.47531l249.99991-119.75538-.14117 260.88695-249.99991 119.75542z" fill="#ccc" fill-rule="evenodd"/><path d="m250.00054 791.19862l-249.99474376-119.48304v.12975l249.99474376-119.48303 249.98933 119.41816z" fill="#f9f9f9" fill-rule="evenodd"/><path d="m148.41832 600.91287l-56.951099 27.219 249.885599 119.42979 56.96433-27.21352z" fill="#b3b3b3" fill-rule="evenodd"/><path d="m398.67668 720.25502l-55.89456 26.7753v105.05067l55.89456-26.71504z" fill="#808080" fill-rule="evenodd"/><g fill="#999" transform="matrix(.56782672 .11647454 -.15897147 .4979627 191.87152 403.716)"><path d="m100 723.91547a100 100 0 0 0-100 100h50a50 50 0 0 1 50-50 50 50 0 0 1  50 50 50 50 0 0 1-49.83398 49.99414h-25.16602v100h50v-53.29687a100 100 0 0 0 75-96.69727 100 100 0 0 0-100-100z"/><ellipse cx="100" cy="1008.9125" rx="25" ry="24"/></g></g></svg>
