<svg height="1000" viewBox="0 0 1000 1000" width="1000" xmlns="http://www.w3.org/2000/svg"><g transform="translate(0 -52.362161)"><circle cx="-174.34517" cy="915.83868" fill="#3737c8" r="106.5005" stroke="#000" stroke-width=".898197"/><path d="m377.79706 643.75549c8.50877 3.79856-.92245 13.34373-6.31345 14.14214-14.60928 2.16364-23.37462-14.25503-21.97083-26.76904 2.51106-22.38464 26.76521-34.17686 47.22463-29.79951 30.02503 6.42395 45.20997 39.41283 37.62819 67.68022" fill="none" stroke="#000" transform="matrix(.50830558 -.88041109 -.88041109 -.50830558 -57.293977 1624.7862)"/><path d="m-485.64743-685.9173c8.50877 3.79856-.92245 13.34373-6.31345 14.14214-14.60928 2.16364-23.37462-14.25503-21.97082-26.76904 2.51106-22.38464 26.7652-34.17686 47.22463-29.79951 30.02502 6.42395 45.20996 39.41283 37.62819 67.68022" fill="none" stroke="#000" transform="matrix(-.50830558 .88041109 .88041109 .50830558 -49.212757 1653.5755)"/><circle cx="-417.5766" cy="915.83868" fill="none" r="106.5005" stroke="#000" stroke-width=".898197"/><path d="m377.79706 643.75549c8.50877 3.79856-.92245 13.34373-6.31345 14.14214-14.60928 2.16364-23.37462-14.25503-21.97083-26.76904 2.51106-22.38464 26.76521-34.17686 47.22463-29.79951 30.02503 6.42395 45.20997 39.41283 37.62819 67.68022" fill="#2a7fff" fill-rule="evenodd" stroke="#0000a1" stroke-linecap="round" stroke-width="7.86928225" transform="matrix(.50830558 -.88041109 -.88041109 -.50830558 187.49673 1619.4772)"/><path d="m-485.64743-685.9173c8.50877 3.79856-.92245 13.34373-6.31345 14.14214-14.60928 2.16364-23.37462-14.25503-21.97082-26.76904 2.51106-22.38464 26.7652-34.17686 47.22463-29.79951 30.02502 6.42395 45.20996 39.41283 37.62819 67.68022" fill="#2a7fff" fill-rule="evenodd" stroke="#0000a1" stroke-linecap="round" stroke-width="7.86928225" transform="matrix(-.50830558 .88041109 .88041109 .50830558 195.57795 1648.2665)"/><circle cx="500" cy="552.36218" fill="#009688" r="500"/><path d="m634.64258 158.92773l-186.13477 109.72266 147.02735 233.84375-432.90039 114.6582 217.11523 217.11524-14.58008 6.88672 158.02539 158.02539a500 500 0 0 0 475.64649-476.05078z" fill="#00796b" fill-rule="evenodd" transform="translate(0 52.362161)"/><g fill="#ffc107" fill-rule="evenodd" stroke="#212121" stroke-linecap="round" stroke-width="10.4760313" transform="matrix(4.6948135 0 0 4.6948135 -2498.4984 -3707.0886)"><path d="m377.79706 643.75549c8.50877 3.79856-.92245 13.34373-6.31345 14.14214-14.60928 2.16364-23.37462-14.25503-21.97083-26.76904 2.51106-22.38464 26.76521-34.17686 47.22463-29.79951 30.02503 6.42395 45.20997 39.41283 37.62819 67.68022" transform="matrix(.88041109 .50830558 .50830558 -.88041109 -64.955261 1269.1093)"/><path d="m-485.64743-685.9173c8.50877 3.79856-.92245 13.34373-6.31345 14.14214-14.60928 2.16364-23.37462-14.25503-21.97082-26.76904 2.51106-22.38464 26.7652-34.17686 47.22463-29.79951 30.02502 6.42395 45.20996 39.41283 37.62819 67.68022" transform="matrix(-.88041109 -.50830558 -.50830558 .88041109 -93.744561 1277.1905)"/></g><g fill="#24c1ae" fill-rule="evenodd" stroke="#b2dfdb" stroke-linecap="round" stroke-width="10.4760313" transform="matrix(4.6948135 0 0 4.6948135 -1626.6045 -1735.2667)"><path d="m377.79706 643.75549c8.50877 3.79856-.92245 13.34373-6.31345 14.14214-14.60928 2.16364-23.37462-14.25503-21.97083-26.76904 2.51106-22.38464 26.76521-34.17686 47.22463-29.79951 30.02503 6.42395 45.20997 39.41283 37.62819 67.68022" transform="matrix(.50830558 -.88041109 -.88041109 -.50830558 814.81082 1190.9058)"/><path d="m-485.64743-685.9173c8.50877 3.79856-.92245 13.34373-6.31345 14.14214-14.60928 2.16364-23.37462-14.25503-21.97082-26.76904 2.51106-22.38464 26.7652-34.17686 47.22463-29.79951 30.02502 6.42395 45.20996 39.41283 37.62819 67.68022" transform="matrix(-.50830558 .88041109 .88041109 .50830558 822.89202 1219.6951)"/></g></g></svg>